# AST/ASF file generated using VICON BodyLanguage
# -----------------------------------------------
:version 1.10
:name VICON
:units
  mass 1.0
  length 0.45
  angle deg
:documentation
   .ast/.asf automatically generated from VICON data using
   VICON BodyBuilder and BodyLanguage model FoxedUp or BRILLIANT.MOD
:root
   order TX TY TZ RX RY RZ
   axis XYZ
   position 0 0 0  
   orientation 0 0 0 
:bonedata
  begin
     id 1 
     name lhipjoint
     direction 0.710087 -0.641647 0.289942 
     length 2.79038 
     axis 0 0 0  XYZ
  end
  begin
     id 2 
     name lfemur
     direction 0.34202 -0.939693 0  
     length 7.2706  
     axis 0 0 20  XYZ
    dof rx ry rz
    limits (-160.0 20.0)
           (-70.0 70.0)
           (-60.0 70.0)
  end
  begin
     id 3 
     name ltibia
     direction 0.34202 -0.939693 0   
     length 7.86328   
     axis 0 0 20   XYZ
    dof rx
    limits (-10.0 170.0)
  end
  begin
     id 4 
     name lfoot
     direction 0.0541246 -0.148706 0.987399   
     length 2.37542   
     axis -90 7.62852e-016 20   XYZ
    dof rx rz
    limits (-45.0 90.0)
           (-70.0 20.0)
  end
  begin
     id 5 
     name ltoes
     direction 1.53554e-011 -4.21866e-011 1   
     length 1.19593   
     axis -90 7.62852e-016 20   XYZ
    dof rx
    limits (-90.0 20.0)
  end
  begin
     id 6 
     name rhipjoint
     direction -0.675762 -0.671724 0.303533   
     length 2.66544  
     axis 0 0 0  XYZ 
  end
  begin
     id 7 
     name rfemur
     direction -0.34202 -0.939693 0   
     length 8.11844   
     axis 0 0 -20   XYZ
    dof rx ry rz
    limits (-160.0 20.0)
           (-70.0 70.0)
           (-70.0 60.0)
  end
  begin
     id 8 
     name rtibia
     direction -0.34202 -0.939693 0   
     length 7.97082   
     axis 0 0 -20   XYZ
    dof rx
    limits (-10.0 170.0)
 end
 begin
     id 9 
     name rfoot
     direction -0.0726228 -0.199474 0.977208   
     length 2.19677  
     axis -90 -7.62852e-016 -20   XYZ
    dof rx rz
    limits (-45.0 90.0)
           (-20.0 70.0)
  end
  begin
     id 10 
     name rtoes
     direction -1.53508e-011 -4.21913e-011 1   
     length 1.10438   
     axis -90 -7.62852e-016 -20   XYZ
    dof rx
    limits (-90.0 20.0)
  end
  begin
     id 11 
     name lowerback
     direction -0.00404436 0.999673 -0.0252643   
     length 2.03972   
     axis 0 0 0   XYZ
    dof rx ry rz
    limits (-20.0 45.0)
           (-30.0 30.0)
           (-30.0 30.0)
  end
  begin
     id 12 
     name upperback
     direction 0.00744643 0.999969 0.00242763   
     length 2.04273   
     axis 0 0 0   XYZ
    dof rx ry rz
    limits (-20.0 45.0)
           (-30.0 30.0)
           (-30.0 30.0)
  end
  begin
     id 13 
     name thorax
     direction 0.00846113 0.999862 0.0143204   
     length 2.03752   
     axis 0 0 0   XYZ
    dof rx ry rz
    limits (-20.0 45.0)
           (-30.0 30.0)
           (-30.0 30.0)
  end
  begin
     id 14 
     name lowerneck
     direction 0.0328213 0.990857 0.130862   
     length 1.37497   
     axis 0 0 0   XYZ
    dof rx ry rz
    limits (-20.0 45.0)
           (-30.0 30.0)
           (-30.0 30.0)
  end
  begin
     id 15 
     name upperneck
     direction -0.0302832 0.999496 0.00956452   
     length 1.35926   
     axis 0 0 0   XYZ
    dof rx ry rz
    limits (-20.0 45.0)
           (-30.0 30.0)
           (-30.0 30.0)
  end
  begin
     id 16
     name head
     direction -0.0130455 0.999856 -0.0108809  
     length 1.44454  
     axis 0 0 0   XYZ
    dof rx ry rz
    limits (-20.0 45.0)
           (-30.0 30.0)
           (-30.0 30.0)
  end
  begin
     id 17 
     name lclavicle
     direction 0.952957 0.278766 0.119006  
     length 3.10112  
     axis 0 0 0   XYZ
    dof ry rz
    limits (-20.0 10.0)
           (0.0 20.0)
  end
  begin
     id 18 
     name lhumerus
     direction 1 -4.48972e-011 -1.63238e-028   
     length 5.82845   
     axis -180 -30 -90   XYZ
    dof rx ry rz
    limits (-60.0 90.0)
           (-90.0 90.0)
           (-90.0 90.0)
  end
  begin
     id 19
     name lradius
     direction 1 -4.48959e-011 1.45401e-026   
     length 3.49691   
     axis -180 -30 -90   XYZ
    dof rx
    limits (-10.0 170.0)
  end
  begin
     id 20
     name lwrist
     direction 1 -4.48945e-011 2.98015e-026   
     length 1.74845   
     axis -1.7599e-014 90 90   XYZ
    dof ry
    limits (-180.0 0.0)
 end
  begin
     id 21 
     name lhand
     direction 1 -4.4902e-011 5.9603e-026   
     length 0.674998   
     axis -3.80318e-014 90 90   XYZ
    dof rx rz
    limits (-90.0 90.0)
           (-45.0 45.0)
  end
  begin
     id 22 
     name lfingers
     direction 1 -4.48979e-011 1.19206e-025   
     length 0.544201   
     axis -7.60636e-014 90 90   XYZ
    dof rx
    limits (0.0 90.0)
  end
  begin
     id 23
     name lthumb
     direction 0.707107 -6.34941e-011 0.707107   
     length 0.781367   
     axis -90 45 2.85299e-015   XYZ
    dof rx rz
    limits (-45.0 45.0)
           (-45.0 45.0)
  end
  begin
     id 24 
     name rclavicle
     direction -0.967632 0.241887 0.0719654   
     length 3.53012  
     axis 0 0 0   XYZ 
    dof ry rz
    limits (-10.0 20.0)
           (-20.0 0.0)
  end
  begin
     id 25 
     name rhumerus
     direction -1 -4.4897e-011 6.87619e-028  
     length 5.45859   
     axis -180 30 90   XYZ
    dof rx ry rz
    limits (-90.0 60.0)
           (-90.0 90.0)
           (-90.0 90.0)
  end
  begin
     id 26 
     name rradius
     direction -1 -4.48967e-011 1.68055e-026   
     length 3.58491   
     axis -180 30 90   XYZ
    dof rx
    limits (-10.0 170.0)
  end
  begin
     id 27 
     name rwrist
     direction -1 -4.48976e-011 2.98015e-026   
     length 1.79245   
     axis -1.7599e-014 -90 -90   XYZ
    dof ry
    limits (-180.0 0.0)
  end
  begin
     id 28
     name rhand
     direction -1 -4.48996e-011 5.9603e-026   
     length 0.683735   
     axis -3.80318e-014 -90 -90   XYZ
    dof rx rz
    limits (-90.0 90.0)
           (-45.0 45.0)
  end
  begin
     id 29
     name rfingers
     direction -1 -4.48924e-011 1.19206e-025   
     length 0.551245   
     axis -7.60636e-014 -90 -90   XYZ
    dof rx
    limits (0.0 90.0)
  end
  begin
     id 30
     name rthumb
     direction -0.707107 -6.3492e-011 0.707107   
     length 0.791481   
     axis -90 -45 -2.85299e-015   XYZ
    dof rx rz
    limits (-45.0 45.0)
           (-45.0 45.0)
  end
:hierarchy
  begin
    root lhipjoint rhipjoint lowerback
    lhipjoint lfemur
    lfemur ltibia
    ltibia lfoot
    lfoot ltoes
    rhipjoint rfemur
    rfemur rtibia
    rtibia rfoot
    rfoot rtoes
    lowerback upperback
    upperback thorax
    thorax lowerneck lclavicle rclavicle
    lowerneck upperneck
    upperneck head
    lclavicle lhumerus
    lhumerus lradius
    lradius lwrist
    lwrist lhand lthumb
    lhand lfingers
    rclavicle rhumerus
    rhumerus rradius
    rradius rwrist
    rwrist rhand rthumb
    rhand rfingers
  end

#!OML:ASF F:\VICON\USERDATA\INSTALL\rory3\rory3.ASF
:FULLY-SPECIFIED
:DEGREES
1015
root -3.02901 15.6396 -31.6398 -32.9798 -85.3121 98.9516
lowerback 30.27 -0.335332 7.08717
upperback 3.95779 1.48854 0.00399332
thorax -11.2244 0.262295 -4.33782
lowerneck -30.396 3.11936 7.96181
upperneck 12.9795 2.06078 -5.6023
head 9.06649 0.693167 -2.91907
rclavicle -4.77083e-015 1.83876e-015
rhumerus 34.9047 -3.22116 -79.622
rradius 29.3016
rwrist -61.7915
rhand -26.3718 51.4783
rfingers 7.12502
rthumb 0.186671 21.4986
lclavicle -4.77083e-015 1.83876e-015
lhumerus 48.6225 -33.9383 66.6552
lradius 35.4151
lwrist 17.0545
lhand 29.7735 -18.5339
lfingers 7.12502
lthumb -126.497 540.635
rfemur -117.418 1.57065 -1.83948
rtibia 64.0735
rfoot 1.02981 18.8017
rtoes 22.885
lfemur -89.6381 15.2555 -42.965
ltibia 70.548
lfoot -21.611 -1.22165
ltoes -30.4992
1016
root -3.03676 15.6839 -31.659 -30.2295 -85.3204 96.1571
lowerback 30.0241 -0.438648 7.11029
upperback 3.8732 1.40637 0.403768
thorax -11.2284 0.228939 -3.89159
lowerneck -29.984 3.09637 7.1323
upperneck 12.9805 2.31121 -5.13999
head 9.00471 0.828805 -2.58049
rclavicle 1.1291e-013 5.80948e-014
rhumerus 34.5288 -2.62269 -79.3328
rradius 29.6267
rwrist -62.3737
rhand -28.1686 55.9519
rfingers 7.12502
rthumb -1.54876 25.9778
lclavicle 1.1291e-013 5.80948e-014
lhumerus 47.8103 -33.5432 66.5237
lradius 35.7834
lwrist 17.5903
lhand 29.0317 -19.0304
lfingers 7.12502
lthumb -127.166 540.566
rfemur -117.013 1.6043 -2.32654
rtibia 63.6752
rfoot -1.25629 17.5589
rtoes 14.7847
lfemur -89.2896 15.2186 -43.0752
ltibia 69.7289
lfoot -21.5011 -0.811701
ltoes -30.2696
1017
root -3.04552 15.7518 -31.679 -26.0333 -85.3664 91.9239
lowerback 29.6384 -0.511139 7.09863
upperback 4.13842 1.34417 0.983339
thorax -11.5426 0.190474 -3.46511
lowerneck -29.2829 3.07816 6.46321
upperneck 12.7522 2.56916 -4.96953
head 8.82183 0.943483 -2.36988
rclavicle 4.45278e-014 -1.86858e-014
rhumerus 34.1807 -2.66299 -79.5447
rradius 29.7182
rwrist -61.6244
rhand -25.828 54.7773
rfingers 7.12502
rthumb 0.711899 24.7988
lclavicle 4.45278e-014 -1.86858e-014
lhumerus 46.9986 -33.3551 66.5693
lradius 35.9576
lwrist 18.4478
lhand 28.1579 -18.7251
lfingers 7.12502
lthumb -127.957 541.355
rfemur -116.465 1.70334 -3.02426
rtibia 63.1249
rfoot -1.101 18.0569
rtoes 18.523
lfemur -88.643 14.8191 -42.644
ltibia 68.6604
lfoot -22.1542 1.74486
ltoes -33.6565
1018
root -3.05024 15.807 -31.7013 -21.8774 -85.3572 87.7444
lowerback 29.2894 -0.535279 7.1236
upperback 4.025 1.35806 1.40241
thorax -11.5086 0.207159 -2.99832
lowerneck -28.543 2.93313 5.74051
upperneck 12.3684 2.65635 -4.78664
head 8.56629 0.976932 -2.17449
rclavicle -1.06549e-013 -7.688e-014
rhumerus 33.505 -2.76133 -79.2815
rradius 30.1676
rwrist -61.2013
rhand -19.698 48.9851
rfingers 7.12502
rthumb 6.63139 19.109
lclavicle -1.06549e-013 -7.688e-014
lhumerus 45.89 -33.0967 67.5283
lradius 36.1317
lwrist 18.6478
lhand 27.2038 -17.4291
lfingers 7.12502
lthumb -128.824 543.153
rfemur -116.019 1.72639 -3.19106
rtibia 62.6128
rfoot -0.739439 17.341
rtoes 22.0561
lfemur -87.9745 14.55 -42.3279
ltibia 67.4898
lfoot -22.2118 2.67441
ltoes -33.8357
1019
root -3.05775 15.8681 -31.7209 -18.324 -85.2711 84.0849
lowerback 28.9128 -0.588502 7.18953
upperback 3.99543 1.31744 1.681
thorax -11.3612 0.19897 -2.69718
lowerneck -28.0024 2.89094 5.50929
upperneck 12.1086 2.71829 -4.8157
head 8.39368 0.998085 -2.13712
rclavicle -3.02153e-014 -2.68856e-014
rhumerus 32.6769 -2.87029 -78.7651
rradius 31.0393
rwrist -61.2221
rhand -15.9674 47.2806
rfingers 7.12502
rthumb 10.2316 17.5494
lclavicle -3.02153e-014 -2.68856e-014
lhumerus 44.7893 -33.5868 66.8686
lradius 37.8755
lwrist 19.9372
lhand 25.0981 -14.6098
lfingers 7.12502
lthumb -130.749 546.997
rfemur -115.451 1.6961 -2.94831
rtibia 62.0633
rfoot -0.762361 16.782
rtoes 21.5101
lfemur -87.0293 14.3106 -41.9359
ltibia 66.069
lfoot -22.1563 2.7455
ltoes -33.0804
1020
root -3.06708 15.9367 -31.7445 -16.1381 -85.1408 81.8155
lowerback 28.379 -0.618056 7.13534
upperback 4.04405 1.231 1.8053
thorax -11.0444 0.179167 -2.48758
lowerneck -27.4078 2.97493 5.64089
upperneck 11.6299 2.85123 -5.08173
head 8.15129 1.0449 -2.22823
rclavicle -1.59028e-014 -4.02539e-015
rhumerus 31.9486 -3.43527 -78.6961
rradius 31.8489
rwrist -60.4733
rhand -14.5636 46.919
rfingers 7.12502
rthumb 11.5857 17.2593
lclavicle -1.59028e-014 -4.02539e-015
lhumerus 43.7224 -34.0687 66.8485
lradius 39.3804
lwrist 20.4465
lhand 23.7743 -4.76931
lfingers 7.12502
lthumb -131.967 557.428
rfemur -114.867 1.69723 -3.1766
rtibia 61.4937
rfoot -3.99355 16.8173
rtoes 8.19686
lfemur -85.9252 14.0759 -41.5088
ltibia 64.452
lfoot -21.9594 2.38755
ltoes -32.5382
1021
root -3.07877 16.011 -31.7689 -12.4096 -84.9707 77.8684
lowerback 27.8412 -0.678166 7.20276
upperback 4.10208 1.13958 1.93594
thorax -10.711 0.151855 -2.34086
lowerneck -26.6608 3.0121 5.52756
upperneck 11.0654 2.96906 -5.10569
head 7.84862 1.10328 -2.19928
rclavicle -2.22639e-014 -4.36332e-014
rhumerus 31.1006 -3.98903 -78.5939
rradius 32.7596
rwrist -60.1872
rhand -15.2808 48.319
rfingers 7.12502
rthumb 10.8939 18.6216
lclavicle -2.22639e-014 -4.36332e-014
lhumerus 42.6387 -34.9512 65.9297
lradius 41.8048
lwrist 22.2222
lhand 19.3021 13.5557
lfingers 7.12502
lthumb -136.116 577.482
rfemur -114.091 1.73029 -3.47693
rtibia 60.8919
rfoot -9.32521 16.5178
rtoes -2.9155
lfemur -84.5991 13.7558 -40.6889
ltibia 62.6937
lfoot -22.4004 4.29612
ltoes -36.0484
1022
root -3.09407 16.0899 -31.8041 -10.412 -84.8274 75.5214
lowerback 27.4263 -0.625938 7.01048
upperback 4.15079 1.12089 2.01101
thorax -10.4501 0.163267 -2.13712
lowerneck -25.9126 3.06512 5.44016
upperneck 10.5201 3.08262 -5.04633
head 7.55228 1.17087 -2.14828
rclavicle 6.04305e-014 4.95968e-014
rhumerus 29.8921 -3.85004 -77.8504
rradius 33.8952
rwrist -61.4283
rhand -17.9306 53.5658
rfingers 7.12502
rthumb 8.33727 23.7504
lclavicle 6.04305e-014 4.95968e-014
lhumerus 41.3165 -35.9 64.6279
lradius 44.8829
lwrist 25.1601
lhand 17.2679 16.5037
lfingers 7.12502
lthumb -138.018 581.1
rfemur -113.216 1.93759 -3.82671
rtibia 60.2759
rfoot -9.79404 16.1427
rtoes -5.42648
lfemur -83.2017 13.708 -40.0182
ltibia 60.9068
lfoot -22.4218 4.62077
ltoes -36.3598
1023
root -3.11095 16.173 -31.8329 -7.61208 -84.6592 72.3401
lowerback 26.7875 -0.614476 7.03179
upperback 4.25695 1.07929 2.01856
thorax -10.0023 0.161574 -2.12348
lowerneck -25.4469 3.17822 5.37994
upperneck 10.0357 3.25917 -5.02967
head 7.32602 1.26121 -2.10859
rclavicle -2.70347e-014 -1.10325e-014
rhumerus 28.5682 -4.12119 -77.3831
rradius 35.3856
rwrist -61.7878
rhand -20.7658 56.4013
rfingers 7.12502
rthumb 5.60045 26.4953
lclavicle -2.70347e-014 -1.10325e-014
lhumerus 39.5513 -36.5313 63.7446
lradius 48.3065
lwrist 28.6001
lhand 15.231 19.5462
lfingers 7.12502
lthumb -139.931 584.751
rfemur -112.268 2.11047 -3.93756
rtibia 59.6625
rfoot -6.19309 15.8503
rtoes -3.97055
lfemur -81.7843 13.564 -39.3009
ltibia 59.2434
lfoot -22.2872 4.40933
ltoes -35.7486
